<svg height="60" viewBox="0 0 496 496" width="60" fill="#fe8b5f" xmlns="http://www.w3.org/2000/svg"><path d="M32 96h80c17.648 0 32-14.352 32-32 0-17.91-15.105-32.535-32.8-31.992C107.487 13.77 91.32 0 72 0S36.512 13.77 32.8 32.008C15.056 31.664 0 46.09 0 64c0 17.648 14.352 32 32 32zm0-48c1.727 0 3.504.336 5.426 1.031l11.261 4.09-.542-11.969L48 40c0-13.23 10.77-24 24-24s24 10.77 24 23.71l-.688 13.411 11.262-4.09c1.922-.695 3.7-1.031 5.426-1.031 8.824 0 16 7.176 16 16s-7.176 16-16 16H32c-8.824 0-16-7.176-16-16s7.176-16 16-16zm0 0M384 120h80c17.648 0 32-14.352 32-32 0-17.91-14.96-32.574-32.8-31.992C459.487 37.77 443.32 24 424 24s-35.488 13.77-39.2 32.008C366.939 55.633 352 70.09 352 88c0 17.648 14.352 32 32 32zm0-48c1.727 0 3.504.336 5.426 1.031l11.261 4.09-.542-11.976L400 64c0-13.23 10.77-24 24-24s24 10.77 24 23.71l-.688 13.411 11.262-4.09c1.922-.695 3.7-1.031 5.426-1.031 8.824 0 16 7.176 16 16s-7.176 16-16 16h-80c-8.824 0-16-7.176-16-16s7.176-16 16-16zm0 0M39.984 408c12.575 0 19.282-4.832 24.664-8.703 4.582-3.305 7.903-5.688 15.32-5.688 7.407 0 10.72 2.383 15.313 5.688 5.383 3.871 12.078 8.703 24.656 8.703 12.575 0 19.286-4.832 24.672-8.703 4.59-3.305 7.91-5.688 15.336-5.688 7.422 0 10.743 2.383 15.336 5.688 5.39 3.871 12.102 8.703 24.688 8.703 12.582 0 19.297-4.832 24.687-8.703 4.59-3.305 7.91-5.695 15.344-5.695v-16c-12.586 0-19.297 4.832-24.688 8.703-4.593 3.312-7.914 5.695-15.343 5.695-7.434 0-10.754-2.383-15.344-5.695-5.395-3.871-12.098-8.703-24.68-8.703-12.586 0-19.289 4.832-24.68 8.703-4.593 3.312-7.913 5.695-15.327 5.695-7.41 0-10.723-2.383-15.313-5.688-5.387-3.878-12.09-8.703-24.664-8.703-12.578 0-19.29 4.832-24.672 8.704-4.578 3.304-7.898 5.687-15.305 5.687-7.41 0-10.726-2.383-15.32-5.688-5.383-3.878-12.09-8.71-24.664-8.71v16c7.414 0 10.727 2.382 15.313 5.687C20.694 403.168 27.398 408 39.983 408zm0 0M455.969 422.398c-7.434 0-10.754-2.382-15.344-5.695-5.395-3.871-12.098-8.703-24.68-8.703-12.586 0-19.289 4.832-24.68 8.703-4.593 3.305-7.906 5.688-15.327 5.688-7.41 0-10.723-2.383-15.313-5.688-5.379-3.871-12.082-8.703-24.656-8.703-12.578 0-19.29 4.832-24.672 8.703-4.586 3.305-7.906 5.688-15.32 5.688-7.418 0-10.73-2.383-15.32-5.688C275.28 412.832 268.573 408 256 408v16c7.414 0 10.727 2.383 15.313 5.688 5.382 3.878 12.085 8.703 24.664 8.703 12.574 0 19.28-4.832 24.664-8.704 4.59-3.304 7.91-5.687 15.328-5.687 7.406 0 10.719 2.383 15.312 5.688 5.383 3.878 12.086 8.703 24.664 8.703 12.575 0 19.285-4.832 24.672-8.704 4.582-3.304 7.903-5.687 15.328-5.687 7.422 0 10.743 2.383 15.336 5.688 5.39 3.878 12.102 8.703 24.688 8.703 12.582 0 19.297-4.832 24.687-8.704 4.59-3.304 7.91-5.687 15.344-5.687v-16c-12.586 0-19.297 4.832-24.688 8.703-4.593 3.305-7.914 5.695-15.343 5.695zm0 0M462.992 473.754c-4.543 3.621-7.824 6.246-15.023 6.246s-10.48-2.625-15.016-6.246c-5.441-4.348-12.2-9.754-25.008-9.754s-19.57 5.406-25 9.754c-4.707 3.758-7.808 6.246-15.007 6.246-7.184 0-10.29-2.488-14.985-6.246C347.52 469.406 340.77 464 327.97 464c-12.809 0-19.563 5.406-25 9.754-4.696 3.758-7.801 6.246-14.985 6.246s-10.296-2.488-14.992-6.246c-5.426-4.348-12.176-9.746-24.96-9.754H248c-12.793.008-19.55 5.406-24.984 9.754C218.48 477.375 215.199 480 208 480s-10.48-2.625-15.016-6.246c-5.441-4.348-12.199-9.754-25.015-9.754-12.809 0-19.57 5.406-25 9.754-4.696 3.758-7.801 6.246-15 6.246-7.184 0-10.29-2.488-14.985-6.246C107.551 469.406 100.801 464 88 464c-12.809 0-19.559 5.406-25 9.754-4.695 3.758-7.8 6.246-14.992 6.246-7.184 0-10.29-2.488-14.992-6.246C27.594 469.406 20.832 464 8.03 464H0v16h8.031c7.184 0 10.29 2.488 14.992 6.246C28.45 490.594 35.207 496 48.008 496c12.808 0 19.558-5.406 25-9.754C77.703 482.488 80.808 480 88 480c7.184 0 10.29 2.488 14.984 6.246 5.43 4.348 12.184 9.754 24.985 9.754 12.808 0 19.566-5.406 25-9.754 4.695-3.758 7.808-6.246 15-6.246 7.199 0 10.48 2.625 15.015 6.246 5.442 4.348 12.2 9.754 25.016 9.754s19.574-5.406 25.008-9.754c4.535-3.621 7.816-6.246 15.008-6.246 7.175 0 10.28 2.488 14.976 6.246 5.422 4.348 12.184 9.754 24.992 9.754 12.801 0 19.559-5.406 24.993-9.754 4.695-3.758 7.8-6.246 14.992-6.246 7.183 0 10.289 2.488 14.984 6.246 5.43 4.348 12.184 9.754 24.985 9.754 12.804 0 19.566-5.406 25-9.754 4.703-3.758 7.804-6.246 15.007-6.246 7.2 0 10.313 2.488 15.016 6.246 5.43 4.348 12.2 9.754 25.008 9.754s19.574-5.406 25.008-9.754C477.52 482.625 480.8 480 488 480h8v-16h-8c-12.816 0-19.574 5.406-25.008 9.754zm0 0M407.39 166.016C395.247 147.215 374.649 136 352.274 136c-22.921 0-44.48 12.207-56.273 31.855l-29.36 48.93-52.632-96.496A61.911 61.911 0 00159.618 88a61.952 61.952 0 00-54.345 32.191l-68.12 124.352L0 215.648V352h496V215.648l-37.64 29.274zm-97.671 10.082C318.64 161.23 334.945 152 352.273 152c16.918 0 32.497 8.488 41.68 22.695l30.086 46.578V240c0 4.406-3.59 8-8 8-4.406 0-8-3.594-8-8v-16c0-13.23-10.766-24-24-24-13.23 0-24 10.77-24 24v48c0 4.406-3.59 8-8 8-4.406 0-8-3.594-8-8v-40.672c0-12.855-10.465-23.328-23.328-23.328-8.152 0-15.809 4.336-20 11.328l-15.07 25.121a7.326 7.326 0 01-6.266 3.551l-12.79-.016zm-190.414-48.22A45.963 45.963 0 01159.617 104a45.92 45.92 0 0140.344 23.953l35.809 65.649c-3.825-2.715-7.137-6.168-9.618-10.297l-8.672-14.465c-3.273-5.45-9.257-8.84-15.617-8.84-10.039 0-18.215 8.168-18.215 18.215V216c0 4.406-3.593 8-8 8-4.41 0-8-3.594-8-8v-58.816c0-11.68-9.503-21.184-21.183-21.184-10.067 0-18.8 7.168-20.778 17.031l-4.207 21.04c-.425 2.12-3.921 2.355-4.609.288l-.566-1.71c-2.243-6.727-6.848-12.352-12.739-16.032zM16 336v-87.648L128.68 336zm33.945-81.512l45.88-83.754c2.405 1.73 4.335 4.098 5.296 6.977l.567 1.715a18.35 18.35 0 0017.44 12.566c8.727 0 16.321-6.215 18.032-14.785l4.207-21.047a5.218 5.218 0 015.098-4.16 5.193 5.193 0 015.183 5.184V216c0 13.23 10.766 24 24 24 13.23 0 24-10.77 24-24v-37.785c0-1.992 3.086-2.84 4.122-1.137l8.671 14.465c7.68 12.8 20.59 21.402 35.16 23.754l9.497 17.406L195.12 336h-40.379zM213.777 336l43.215-72.023 22.375.023c8.153 0 15.809-4.336 20-11.328l15.074-25.121A7.35 7.35 0 01320.72 224c4.043 0 7.328 3.29 7.328 7.328V272c0 13.23 10.77 24 24 24 13.234 0 24-10.77 24-24v-48c0-4.406 3.594-8 8-8 4.41 0 8 3.594 8 8v16c0 13.23 10.77 24 24 24 11.465 0 21.058-8.098 23.418-18.863l6.222 9.64L341.257 336zM480 336H367.32L480 248.352zm0 0"/></svg>