<svg height="60" viewBox="0 0 512 512" width="60" fill="#fe8b5f" xmlns="http://www.w3.org/2000/svg"><path d="M304.101 178.671a7.502 7.502 0 00-9.688 4.317c-.66 1.723-4.777 9.224-7.618 12.747a7.498 7.498 0 001.13 10.546 7.5 7.5 0 0010.546-1.13c3.692-4.579 8.661-13.437 9.948-16.792a7.502 7.502 0 00-4.318-9.688zm-208.173-2.005c27.39 0 49.672-22.283 49.672-49.671 0-27.389-22.282-49.671-49.672-49.671s-49.672 22.283-49.672 49.671 22.282 49.671 49.672 49.671zm0-84.343c19.118 0 34.672 15.554 34.672 34.671s-15.554 34.671-34.672 34.671-34.672-15.554-34.672-34.671S76.81 92.323 95.928 92.323zm318.204 226.598v12c0 4.142 3.357 7.5 7.5 7.5s7.5-3.358 7.5-7.5v-12c0-4.142-3.357-7.5-7.5-7.5s-7.5 3.358-7.5 7.5zm-95.097 22.801c0 14.268 10.731 25.876 23.922 25.876s23.923-11.608 23.923-25.876c0-14.269-10.732-25.877-23.923-25.877-13.19 0-23.922 11.608-23.922 25.877zm32.845 0c0 5.997-4.003 10.876-8.923 10.876s-8.922-4.879-8.922-10.876c0-5.998 4.002-10.877 8.922-10.877s8.923 4.879 8.923 10.877zm-95.098-22.801v12c0 4.142 3.357 7.5 7.5 7.5s7.5-3.358 7.5-7.5v-12c0-4.142-3.357-7.5-7.5-7.5s-7.5 3.358-7.5 7.5zm134.722-135.93a7.5 7.5 0 00-14.008 5.367c1.285 3.353 6.253 12.211 9.949 16.794a7.5 7.5 0 0010.546 1.13 7.5 7.5 0 001.13-10.546c-2.844-3.528-6.958-11.025-7.617-12.745zm95.175 42.625h-2.708c-26.58-20.156-82.494-71.511-98.545-112.638-1.965-5.037-5.944-9.161-10.919-11.314-7.159-3.1-15.496-5.105-24.05-5.859V70.63h7.745c4.143 0 7.5-3.358 7.5-7.5s-3.357-7.5-7.5-7.5h-7.745V45.18a7.5 7.5 0 00-15 0v10.45h-7.744c-4.143 0-7.5 3.358-7.5 7.5s3.357 7.5 7.5 7.5h7.744v25.174c-8.553.754-16.89 2.759-24.05 5.859-4.973 2.153-8.952 6.277-10.918 11.313-16.052 41.132-71.966 92.484-98.546 112.64h-2.708c-13.962 0-25.321 11.359-25.321 25.321v15.352c0 9.369 5.12 17.56 12.704 21.939v84.581c0 15.408 12.535 27.943 27.943 27.943h103.076v6.479c0 12.754-10.376 23.13-23.129 23.13H144.367c-12.754 0-23.13-10.376-23.13-23.13V284.07a48.056 48.056 0 0011.162-9.438c35.435-40.784 58.197-95.802 59.405-143.583 1.672-66.198-61.494-115.646-124.94-95.499a7.5 7.5 0 004.541 14.296c54.146-17.198 106.806 25.371 105.403 80.823-1.106 43.784-22.982 96.43-55.732 134.124-10.619 12.224-25.181 11.423-25.081 11.401a33.654 33.654 0 01-25.421-11.636C36.814 225.581 15 171.583 15 126.995a80.918 80.918 0 0127.989-61.212 7.5 7.5 0 00-9.818-11.341A95.91 95.91 0 000 126.995c0 51.38 25.325 108.233 59.236 147.385a48.704 48.704 0 0011.362 9.626v123.226c0 40.676 33.093 73.768 73.769 73.768h150.142c40.676 0 73.768-33.092 73.768-73.768v-6.479h72.196c4.143 0 7.5-3.358 7.5-7.5s-3.357-7.5-7.5-7.5H214.561c-7.137 0-12.943-5.806-12.943-12.943v-81.2h282.679v81.2c0 6.01-4.247 11.322-10.1 12.631a7.501 7.501 0 003.275 14.639c12.646-2.829 21.824-14.298 21.824-27.27v-84.582c7.584-4.379 12.703-12.57 12.703-21.939v-15.352c.001-13.962-11.358-25.321-25.32-25.321zM332.638 407.231v-6.479h20.639v6.479c0 32.405-26.363 58.768-58.768 58.768H144.367c-32.405 0-58.769-26.363-58.769-58.768V290.065a48.471 48.471 0 0020.639.036v117.13c0 21.025 17.105 38.13 38.13 38.13h150.142c21.024 0 38.129-17.105 38.129-38.13zm-15.271-291.803c15.28-6.615 35.89-6.621 51.18 0 4.446 1.925 1.762 5.438 15.174 26.719h-81.539c13.401-21.264 10.753-24.8 15.185-26.719zm-25.547 41.719h102.263c20.125 26.901 46.984 52.28 66.06 68.469H225.771c19.075-16.188 45.925-41.569 66.049-68.469zm-10.211 119.462h-82.374c-5.691 0-10.321-4.63-10.321-10.321v-15.352c0-5.691 4.63-10.321 10.321-10.321h82.374zm107.696 0H296.61v-35.993h92.695zM497 266.288c0 5.691-4.63 10.321-10.321 10.321h-82.374v-35.993h82.374c5.691 0 10.321 4.63 10.321 10.321z"/></svg>