<svg enable-background="new 0 0 514.201 514.201" height="46" fill="#e86938" viewBox="0 0 514.201 514.201" width="46" xmlns="http://www.w3.org/2000/svg"><g id="Outline_49_"><path d="m149.667 91.427-25.066-50.791-25.067 50.791-56.051 8.145 40.559 39.535-9.575 55.824 50.133-26.356 50.133 26.356-9.575-55.824 40.559-39.535zm5.145 76.084-30.211-15.884-30.211 15.884 5.77-33.641-24.441-23.825 33.777-4.907 15.105-30.607 15.105 30.607 33.777 4.907-24.441 23.825z"/><path d="m490.601 0h-467c-12.407 0-22.5 10.094-22.5 22.5v200.5c0 12.406 10.093 22.5 22.5 22.5h36.5v104.527l109.504-104.527h320.995c12.406 0 22.5-10.094 22.5-22.5v-200.5c.001-12.406-10.093-22.5-22.499-22.5zm7.5 223c0 4.136-3.364 7.5-7.5 7.5h-327.005l-88.495 84.473v-84.473h-51.5c-4.136 0-7.5-3.364-7.5-7.5v-200.5c0-4.136 3.364-7.5 7.5-7.5h467c4.136 0 7.5 3.364 7.5 7.5z"/><path d="m294.601 66h167v15h-167z"/><path d="m234.601 97h227v15h-227z"/><path d="m234.601 128h227v15h-227z"/><path d="m417.601 159h15v15h-15z"/><path d="m234.601 159h138v15h-138z"/><path d="m447.601 159h14v15h-14z"/><path d="m387.601 159h15v15h-15z"/><path d="m288.601 313h167v15h-167z"/><path d="m228.601 344h227v15h-227z"/><path d="m228.601 375h227v15h-227z"/><path d="m381.601 406h15v15h-15z"/><path d="m228.601 406h138v15h-138z"/><path d="m411.601 406h15v15h-15z"/><path d="m441.601 406h14v15h-14z"/><path d="m490.601 270h-297c-12.407 0-22.5 10.094-22.5 22.5v149.5c0 12.406 10.093 22.5 22.5 22.5h142.359l108.141 49.701v-49.701h46.5c12.406 0 22.5-10.094 22.5-22.5v-149.5c0-12.406-10.094-22.5-22.5-22.5zm7.5 172c0 4.136-3.364 7.5-7.5 7.5h-61.5v41.299l-89.86-41.299h-145.64c-4.136 0-7.5-3.364-7.5-7.5v-149.5c0-4.136 3.364-7.5 7.5-7.5h297c4.136 0 7.5 3.364 7.5 7.5z"/></g></svg>